# xmcd
#
# Track frame offsets:
#	150
#	20401
#	32417
#	49650
#	71141
#	89180
#	99271
#	116836
#	136654
#	153335
#	171234
#	187175
#	198666
#	218897
#	231629
#	247671
#	264830
#	277403
#
# Disc length: 3925 seconds
#
# Revision: 0
# Processed by: cddbd v1.5PL3 Copyright (c) Steve Scherf et al.
# Submitted via: dBpowerAMP V4.0
#
DISCID=0b0f5312
DTITLE=V/A - PUSHRAP VOLUME ONE - COMPILED BY MIKE-S
DYEAR=2004
DGENRE=Hip-Hop
TTITLE0=The Authors - Eyezofman and A-Bomb feat.Cappo
TTITLE1=United By Flows - LATE feat.PQ and Size8 - (Windows78 Remix)
TTITLE2=What You Got - Split
TTITLE3=Blueberry Dreamhaze - Apocraphe feat.Cappo and Scorzayzee
TTITLE4=A Day In The Life - Marlon Brandy
TTITLE5=Stink Business - Non-Thespian
TTITLE6=Enter The Lyrical Dragon - Gemini feat.Hard Livin
TTITLE7=Set This Off Straight - Dap-C feat.A-Bomb,Shakespearz,Ark Angel and Swordswinger
TTITLE8=Voyage - theELEMENTZ feat.Scorzayzee
TTITLE9=Cock Idols - Pedigree Chumps
TTITLE10=Heinous - The JVF Clique
TTITLE11=Hip Hop World - Hard Livin
TTITLE12=Handle Yourz - Explicit
TTITLE13=Psychonauts - Iron Bridge
TTITLE14=Theme Music - Baron Samedi
TTITLE15=Jack Move - Frisko Dan
TTITLE16=The Foreword - Irrational Number
TTITLE17=Pushrap - Marlon Brandy,MC BC,Gemini,Universon and S.Kalibre
EXTD=
EXTT0=
EXTT1=
EXTT2=
EXTT3=
EXTT4=
EXTT5=
EXTT6=
EXTT7=
EXTT8=
EXTT9=
EXTT10=
EXTT11=
EXTT12=
EXTT13=
EXTT14=
EXTT15=
EXTT16=
EXTT17=
PLAYORDER=
